<svg xmlns="http://www.w3.org/2000/svg" xmlns:xlink="http://www.w3.org/1999/xlink" width="500" zoomAndPan="magnify" viewBox="0 0 375 374.999991" height="500" preserveAspectRatio="xMidYMid meet" version="1.2"><defs><clipPath id="5469e074e8"><path d="M 170 65 L 210 65 L 210 180 L 170 180 Z M 170 65 "/></clipPath><clipPath id="ca2c218a36"><path d="M 120.027344 130.425781 L 187.265625 50.757812 L 254.898438 107.839844 L 187.65625 187.507812 Z M 120.027344 130.425781 "/></clipPath><clipPath id="7bfd71dee3"><path d="M 120.027344 130.425781 L 187.265625 50.757812 L 254.898438 107.839844 L 187.65625 187.507812 Z M 120.027344 130.425781 "/></clipPath><clipPath id="4f201f109e"><path d="M 165 189 L 205 189 L 205 303 L 165 303 Z M 165 189 "/></clipPath><clipPath id="479fe8ca67"><path d="M 255.566406 240.222656 L 186.035156 317.902344 L 120.09375 258.878906 L 189.625 181.199219 Z M 255.566406 240.222656 "/></clipPath><clipPath id="9cb1d2f9fa"><path d="M 255.566406 240.222656 L 186.035156 317.902344 L 120.09375 258.878906 L 189.625 181.199219 Z M 255.566406 240.222656 "/></clipPath><clipPath id="6a4f0540ad"><path d="M 200 170 L 314 170 L 314 209 L 200 209 Z M 200 170 "/></clipPath><clipPath id="e5a43b924b"><path d="M 250.648438 119.082031 L 328.78125 188.097656 L 270.191406 254.425781 L 192.058594 185.410156 Z M 250.648438 119.082031 "/></clipPath><clipPath id="3de1ed82fb"><path d="M 250.648438 119.082031 L 328.78125 188.097656 L 270.191406 254.425781 L 192.058594 185.410156 Z M 250.648438 119.082031 "/></clipPath><clipPath id="a238a96949"><path d="M 59 165 L 173 165 L 173 205 L 59 205 Z M 59 165 "/></clipPath><clipPath id="f2c403f0be"><path d="M 124.894531 254.847656 L 44.5625 188.40625 L 100.96875 120.210938 L 181.300781 186.652344 Z M 124.894531 254.847656 "/></clipPath><clipPath id="a11e3650b2"><path d="M 124.894531 254.847656 L 44.5625 188.40625 L 100.96875 120.210938 L 181.300781 186.652344 Z M 124.894531 254.847656 "/></clipPath><clipPath id="01880ea8eb"><path d="M 196 98 L 284 98 L 284 178 L 196 178 Z M 196 98 "/></clipPath><clipPath id="fdd64b30f3"><path d="M 187.5 92.761719 L 291.710938 89.976562 L 294.078125 178.441406 L 189.867188 181.230469 Z M 187.5 92.761719 "/></clipPath><clipPath id="9a0f1031e9"><path d="M 187.5 92.761719 L 291.710938 89.976562 L 294.078125 178.441406 L 189.867188 181.230469 Z M 187.5 92.761719 "/></clipPath><clipPath id="61842aedf6"><path d="M 196 191 L 281 191 L 281 274 L 196 274 Z M 196 191 "/></clipPath><clipPath id="0ba690cb89"><path d="M 279.804688 176.492188 L 289.949219 280.25 L 201.867188 288.859375 L 191.722656 185.105469 Z M 279.804688 176.492188 "/></clipPath><clipPath id="4daf73c0b9"><path d="M 279.804688 176.492188 L 289.949219 280.25 L 201.867188 288.859375 L 191.722656 185.105469 Z M 279.804688 176.492188 "/></clipPath><clipPath id="61b7d3f4c3"><path d="M 102 185 L 182 185 L 182 274 L 102 274 Z M 102 185 "/></clipPath><clipPath id="44bf971f2a"><path d="M 200.453125 268.699219 L 97.367188 284.246094 L 84.171875 196.738281 L 187.253906 181.191406 Z M 200.453125 268.699219 "/></clipPath><clipPath id="c685684b68"><path d="M 200.453125 268.699219 L 97.367188 284.246094 L 84.171875 196.738281 L 187.253906 181.191406 Z M 200.453125 268.699219 "/></clipPath><clipPath id="74ef652fef"><path d="M 158.128906 158.128906 L 216.871094 158.128906 L 216.871094 216.871094 L 158.128906 216.871094 Z M 158.128906 158.128906 "/></clipPath><clipPath id="7e482ea042"><path d="M 187.5 158.128906 C 171.277344 158.128906 158.128906 171.277344 158.128906 187.5 C 158.128906 203.722656 171.277344 216.871094 187.5 216.871094 C 203.722656 216.871094 216.871094 203.722656 216.871094 187.5 C 216.871094 171.277344 203.722656 158.128906 187.5 158.128906 Z M 187.5 158.128906 "/></clipPath></defs><g id="65db28fe02"><g clip-rule="nonzero" clip-path="url(#5469e074e8)"><g clip-rule="nonzero" clip-path="url(#ca2c218a36)"><g clip-rule="nonzero" clip-path="url(#7bfd71dee3)"><path style=" stroke:none;fill-rule:nonzero;fill:#8c52ff;fill-opacity:1;" d="M 196.433594 165.261719 C 201.09375 147.277344 209.046875 131.035156 209.234375 109.042969 C 209.378906 92.488281 198.941406 60.636719 186.292969 66.449219 C 166.269531 75.648438 167.433594 128.972656 178.878906 162.164062 C 187.578125 187.390625 192.398438 180.851562 196.433594 165.261719 "/></g></g></g><g clip-rule="nonzero" clip-path="url(#4f201f109e)"><g clip-rule="nonzero" clip-path="url(#479fe8ca67)"><g clip-rule="nonzero" clip-path="url(#9cb1d2f9fa)"><path style=" stroke:none;fill-rule:nonzero;fill:#8c52ff;fill-opacity:1;" d="M 180.203125 203.179688 C 175.023438 221.023438 166.601562 237.027344 165.773438 259.003906 C 165.148438 275.546875 174.652344 307.6875 187.464844 302.246094 C 207.75 293.636719 208.136719 240.296875 197.660156 206.785156 C 189.699219 181.316406 184.691406 187.714844 180.203125 203.179688 "/></g></g></g><g clip-rule="nonzero" clip-path="url(#6a4f0540ad)"><g clip-rule="nonzero" clip-path="url(#e5a43b924b)"><g clip-rule="nonzero" clip-path="url(#3de1ed82fb)"><path style=" stroke:none;fill-rule:nonzero;fill:#8c52ff;fill-opacity:1;" d="M 214.097656 194.683594 C 231.976562 199.75 248.035156 208.066406 270.015625 208.75 C 286.5625 209.265625 318.640625 199.550781 313.117188 186.769531 C 304.371094 166.546875 251.035156 166.507812 217.589844 177.203125 C 192.171875 185.332031 198.605469 190.296875 214.097656 194.683594 "/></g></g></g><g clip-rule="nonzero" clip-path="url(#a238a96949)"><g clip-rule="nonzero" clip-path="url(#f2c403f0be)"><g clip-rule="nonzero" clip-path="url(#a11e3650b2)"><path style=" stroke:none;fill-rule:nonzero;fill:#8c52ff;fill-opacity:1;" d="M 158.96875 178.097656 C 140.9375 173.617188 124.617188 165.828125 102.628906 165.855469 C 86.070312 165.878906 54.328125 176.628906 60.261719 189.222656 C 69.660156 209.152344 122.96875 207.460938 156.046875 195.683594 C 181.1875 186.734375 174.597656 181.980469 158.96875 178.097656 "/></g></g></g><path style=" stroke:none;fill-rule:nonzero;fill:#8c52ff;fill-opacity:1;" d="M 173.671875 165.117188 C 165.632812 148.367188 161.234375 130.828125 147.195312 113.898438 C 136.625 101.15625 108.109375 83.546875 102.1875 96.144531 C 92.820312 116.089844 128.101562 156.089844 158.257812 174.074219 C 181.179688 187.742188 180.640625 179.636719 173.671875 165.117188 "/><g clip-rule="nonzero" clip-path="url(#01880ea8eb)"><g clip-rule="nonzero" clip-path="url(#fdd64b30f3)"><g clip-rule="nonzero" clip-path="url(#9a0f1031e9)"><path style=" stroke:none;fill-rule:nonzero;fill:#8c52ff;fill-opacity:1;" d="M 212.3125 172.988281 C 228.84375 164.5 246.261719 159.636719 262.804688 145.148438 C 275.261719 134.242188 292.101562 105.265625 279.351562 99.683594 C 259.160156 90.851562 220.121094 127.191406 202.949219 157.820312 C 189.898438 181.09375 197.988281 180.34375 212.3125 172.988281 "/></g></g></g><g clip-rule="nonzero" clip-path="url(#61842aedf6)"><g clip-rule="nonzero" clip-path="url(#0ba690cb89)"><g clip-rule="nonzero" clip-path="url(#4daf73c0b9)"><path style=" stroke:none;fill-rule:nonzero;fill:#8c52ff;fill-opacity:1;" d="M 201.53125 206.914062 C 211.164062 222.800781 217.246094 239.832031 232.867188 255.3125 C 244.628906 266.96875 274.722656 281.71875 279.390625 268.601562 C 286.773438 247.839844 247.765625 211.464844 216 196.5 C 191.859375 185.128906 193.183594 193.144531 201.53125 206.914062 "/></g></g></g><g clip-rule="nonzero" clip-path="url(#61b7d3f4c3)"><g clip-rule="nonzero" clip-path="url(#44bf971f2a)"><g clip-rule="nonzero" clip-path="url(#c685684b68)"><path style=" stroke:none;fill-rule:nonzero;fill:#8c52ff;fill-opacity:1;" d="M 165.988281 192.125 C 150.625 202.570312 133.933594 209.535156 119.289062 225.941406 C 108.265625 238.292969 95.105469 269.117188 108.445312 273.09375 C 129.566406 279.382812 163.855469 238.53125 177.140625 206.027344 C 187.238281 181.328125 179.304688 183.066406 165.988281 192.125 "/></g></g></g><g clip-rule="nonzero" clip-path="url(#74ef652fef)"><g clip-rule="nonzero" clip-path="url(#7e482ea042)"><path style=" stroke:none;fill-rule:nonzero;fill:#ffde59;fill-opacity:1;" d="M 158.128906 158.128906 L 216.871094 158.128906 L 216.871094 216.871094 L 158.128906 216.871094 Z M 158.128906 158.128906 "/></g></g></g></svg>